<svg width="40" height="40" fill="none" xmlns="http://www.w3.org/2000/svg"><path d="M4.667 16v22a2 2 0 002 2h26.666a2 2 0 002-2V16a2 2 0 00-2-2H6.667a2 2 0 00-2 2zM34 16v22a.667.667 0 01-.667.667H6.667A.667.667 0 016 38V16c0-.368.298-.667.667-.667h26.666c.368 0 .667.299.667.667zM13.61.39a1.333 1.333 0 00-1.885 0L7.058 5.058A1.333 1.333 0 008 7.333h1.333v4c0 .737.597 1.334 1.333 1.334h4c.737 0 1.334-.597 1.334-1.334v-4h1.333a1.333 1.333 0 00.943-2.276L13.61.391zM17.338 6h-2.005a.667.667 0 00-.667.667v4.666h-4V6.667A.667.667 0 0010 6H8l4.666-4.667L17.336 6h.002zm11.995-6h-4C24.597 0 24 .597 24 1.333v4h-1.334a1.333 1.333 0 00-.942 2.276l4.666 4.667c.521.52 1.365.52 1.886 0l4.666-4.667A1.333 1.333 0 0032 5.333h-1.334v-4C30.666.597 30.07 0 29.333 0zM32 6.667l-4.667 4.666-4.667-4.666h2A.667.667 0 0025.333 6V1.333h4V6c0 .368.299.667.667.667h2z" fill="#F4CA92"/><path d="M9.333 29.333c.228-.002.453-.043.667-.122V36a2.01 2.01 0 002 2 1.98 1.98 0 001.333-.522c.363.336.84.523 1.334.522a2 2 0 002-2v-6.79c.213.08.439.121.666.123a2 2 0 002-2v-2.666A3.33 3.33 0 0016 21.333h-.017a3.3 3.3 0 00.684-2 3.333 3.333 0 00-6.667 0c.002.724.243 1.427.684 2h-.017a3.337 3.337 0 00-3.334 3.334v2.666a2 2 0 002 2zm2-10a2 2 0 114 0 2 2 0 01-4 0zm-2.666 5.334a2 2 0 012-2H16a1.996 1.996 0 012 2v2.666a.667.667 0 01-1.333 0v-2.666a.667.667 0 00-1.334 0V36a.667.667 0 01-.666.667.65.65 0 01-.475-.204A.638.638 0 0114 36v-6.667a.667.667 0 10-1.333 0V36a.667.667 0 01-.667.667.65.65 0 01-.475-.204.638.638 0 01-.192-.463V24.667a.667.667 0 00-1.333 0v2.666a.667.667 0 01-1.333 0v-2.666zm13.999 4.666c.228-.002.454-.043.667-.122V36a2.01 2.01 0 002 2c.494-.002.97-.188 1.334-.522.362.336.838.523 1.333.522a2 2 0 002-2v-6.79c.213.08.439.121.666.123a2 2 0 002-2v-2.666a3.33 3.33 0 00-3.333-3.334h-.017a3.299 3.299 0 00.684-2 3.333 3.333 0 10-6.667 0c.003.724.243 1.427.684 2H24a3.337 3.337 0 00-3.334 3.334v2.666a2 2 0 002 2zm2-10a2 2 0 114 0 2 2 0 01-4 0zM22 24.667a2 2 0 012-2h5.333a1.996 1.996 0 012 2v2.666a.667.667 0 01-1.333 0v-2.666a.667.667 0 10-1.334 0V36a.667.667 0 01-.666.667.65.65 0 01-.475-.204.638.638 0 01-.192-.463v-6.667a.667.667 0 00-1.333 0V36a.667.667 0 01-.667.667.65.65 0 01-.474-.204.638.638 0 01-.193-.463V24.667a.667.667 0 00-1.333 0v2.666a.667.667 0 01-1.333 0v-2.666z" fill="#F4CA92"/></svg>