<svg width="24" height="28" fill="none" xmlns="http://www.w3.org/2000/svg"><g clip-path="url(#clip0)"><path d="M12.005 7.554a6.146 6.146 0 00-6.155 6.155 6.146 6.146 0 006.155 6.155 6.146 6.146 0 006.156-6.155 6.146 6.146 0 00-6.156-6.155zm0 10.157a4.01 4.01 0 01-4.001-4.002 4.006 4.006 0 014.001-4.002 4.006 4.006 0 014.002 4.002 4.01 4.01 0 01-4.002 4.002zm7.843-10.409c0 .798-.643 1.436-1.435 1.436a1.436 1.436 0 111.436-1.436zm4.077 1.457c-.091-1.923-.53-3.627-1.94-5.03-1.403-1.404-3.106-1.843-5.03-1.94-1.982-.112-7.923-.112-9.905 0-1.918.092-3.621.53-5.03 1.934C.61 5.127.177 6.831.08 8.753c-.112 1.983-.112 7.924 0 9.906.091 1.923.53 3.627 1.94 5.03 1.409 1.404 3.107 1.843 5.03 1.94 1.982.112 7.923.112 9.905 0 1.924-.091 3.627-.53 5.03-1.94 1.404-1.403 1.844-3.107 1.94-5.03.113-1.982.113-7.918 0-9.9zm-2.56 12.027a4.051 4.051 0 01-2.283 2.282c-1.58.627-5.33.482-7.077.482-1.746 0-5.501.14-7.076-.482a4.051 4.051 0 01-2.283-2.282c-.626-1.58-.482-5.33-.482-7.077 0-1.746-.139-5.502.482-7.077A4.051 4.051 0 014.93 4.35c1.58-.627 5.33-.482 7.076-.482 1.747 0 5.502-.14 7.077.482a4.051 4.051 0 012.282 2.282c.627 1.58.482 5.33.482 7.077 0 1.747.145 5.502-.482 7.077z" fill="#C0BEBB"/></g><defs><clipPath id="clip0"><path fill="#fff" d="M0 0h24v27.429H0z"/></clipPath></defs></svg>