<svg width="12" height="12" fill="none" xmlns="http://www.w3.org/2000/svg"><g clip-path="url(#clip0)" fill="#7B7873"><path d="M9.36.639H5.676a.88.88 0 00-.622.258L.258 5.69a.88.88 0 000 1.245l3.684 3.685a.88.88 0 001.244 0l4.796-4.795a.882.882 0 00.258-.623V1.519a.88.88 0 00-.88-.88zm-1.54 3.08a.66.66 0 110-1.32.66.66 0 010 1.32z"/><path d="M11.12 1.519v4.095c0 .203-.08.398-.225.542l-4.873 4.873.075.075a.88.88 0 001.244 0l4.4-4.4A.879.879 0 0012 6.082V2.399a.88.88 0 00-.88-.88z"/></g><defs><clipPath id="clip0"><path fill="#fff" d="M0 0h12v12H0z"/></clipPath></defs></svg>