<svg width="40" height="40" fill="none" xmlns="http://www.w3.org/2000/svg"><path d="M35.313 0H4.686A4.693 4.693 0 000 4.688v30.625A4.693 4.693 0 004.688 40h30.625A4.693 4.693 0 0040 35.312V4.689A4.693 4.693 0 0035.312 0zm1.562 35.313c0 .861-.7 1.562-1.563 1.562H4.689c-.862 0-1.563-.7-1.563-1.563V4.689c0-.862.7-1.563 1.563-1.563h30.625c.861 0 1.562.7 1.562 1.563v30.625z" fill="#F4CA92"/><path d="M22.344 7.813H11.406v24.375h3.125v-8.75h7.813c4.308 0 7.812-3.505 7.812-7.813s-3.504-7.813-7.812-7.813zm0 12.5H14.53v-9.375h7.813a4.693 4.693 0 014.687 4.687 4.693 4.693 0 01-4.687 4.688z" fill="#F4CA92"/></svg>