<svg width="12" height="12" fill="none" xmlns="http://www.w3.org/2000/svg"><path d="M11.998 4H0v.5a1 1 0 001 1h1.5a1 1 0 001-1 1 1 0 001 1h3a1 1 0 001-1 1 1 0 001 1H11a1 1 0 001-1V4h-.002zm-.121-.5L10.981.362A.5.5 0 0010.5 0H8.21l.7 3.5h2.967zM3.79 0H1.5a.5.5 0 00-.48.363L.122 3.5H3.09l.7-3.5zm3.4 0H4.81l-.7 3.5h3.78L7.19 0zM9.5 6c-.37 0-.725-.136-1-.383-.275.247-.63.383-1 .383h-3c-.37 0-.725-.136-1-.383-.275.247-.63.383-1 .383H1c-.17 0-.34-.03-.5-.088V11.5a.5.5 0 00.5.5h1V7.5a.5.5 0 01.5-.5H5a.5.5 0 01.5.5V12H11a.5.5 0 00.5-.5V5.912A1.49 1.49 0 0111 6H9.5zm.5 3a.5.5 0 01-.5.5H7a.5.5 0 01-.5-.5V7.5A.5.5 0 017 7h2.5a.5.5 0 01.5.5V9z" fill="#7B7873"/></svg>