<svg width="40" height="40" fill="none" xmlns="http://www.w3.org/2000/svg"><g clip-path="url(#clip0)"><path d="M38.855 31.378a3.91 3.91 0 010 5.525l-.007.007-2.673 2.64c-.304.3-.701.45-1.097.45a1.563 1.563 0 01-1.098-2.674l1.563-1.545H10.468a6.257 6.257 0 01-6.25-6.25V4.418L2.659 5.956A1.563 1.563 0 01.464 3.731l2.64-2.604a3.938 3.938 0 015.509 0l2.64 2.604a1.563 1.563 0 11-2.195 2.225L7.343 4.264V29.53a3.129 3.129 0 003.125 3.125h25.234l-1.723-1.7a1.563 1.563 0 112.196-2.224l2.673 2.64.007.006zM35.312 0H15.077a1.563 1.563 0 000 3.125h20.235c.863 0 1.562.7 1.562 1.562V25a1.562 1.562 0 003.125 0V4.687A4.688 4.688 0 0035.311 0zM22.968 26.788c.863 0 1.562-.7 1.562-1.562V18.27a4.302 4.302 0 00-4.297-4.296c-1.038 0-1.99.37-2.734.984a4.277 4.277 0 00-2.734-.984 4.27 4.27 0 00-1.68.342 1.562 1.562 0 00-2.616 1.151v9.766a1.562 1.562 0 103.124 0V18.27a1.173 1.173 0 012.344 0v6.963a1.562 1.562 0 103.125 0V18.27a1.172 1.172 0 012.343 0v6.955c0 .863.7 1.562 1.563 1.562zm7.09-18.35h-.049a3.61 3.61 0 00-3.604 3.608 1.563 1.563 0 003.125 0c0-.262.22-.483.48-.483l.023-.002.025.002c.248 0 .46.203.477.45-.03.115-.27.822-1.767 2.47a31.342 31.342 0 01-1.85 1.86 1.562 1.562 0 001.05 2.72h4.219a1.562 1.562 0 100-3.125h-.538c1.387-1.634 2.012-2.85 2.012-3.892a3.61 3.61 0 00-3.603-3.609z" fill="#F4CA92"/></g><defs><clipPath id="clip0"><path fill="#fff" d="M0 0h40v40H0z"/></clipPath></defs></svg>