<svg width="24" height="22" fill="none" xmlns="http://www.w3.org/2000/svg"><path d="M22.708 4.904c.155-.52 0-.904-.741-.904h-2.454c-.626 0-.913.33-1.067.696 0 0-1.25 3.046-3.017 5.02-.57.572-.833.755-1.146.755-.154 0-.391-.184-.391-.704V4.904c0-.625-.175-.904-.692-.904H9.342c-.392 0-.625.292-.625.563 0 .591.883.729.975 2.395v3.617c0 .792-.142.938-.454.938-.834 0-2.859-3.059-4.059-6.559C4.938 4.275 4.7 4 4.071 4H1.617c-.7 0-.842.33-.842.696 0 .65.833 3.879 3.88 8.146 2.028 2.912 4.887 4.491 7.487 4.491 1.562 0 1.754-.35 1.754-.954 0-2.783-.142-3.046.641-3.046.363 0 .988.184 2.446 1.588 1.667 1.666 1.942 2.412 2.875 2.412h2.454c.7 0 1.055-.35.85-1.041-.466-1.455-3.62-4.446-3.762-4.646-.362-.467-.258-.675 0-1.092.004-.004 3-4.22 3.308-5.65z" fill="#C0BEBB"/></svg>