<svg width="40" height="40" viewBox="0 0 40 40" fill="none" xmlns="http://www.w3.org/2000/svg">
<path d="M4.6665 16V38C4.6665 39.1046 5.56193 40 6.6665 40H33.3332C34.4377 40 35.3332 39.1046 35.3332 38V16C35.3332 14.8954 34.4377 14 33.3332 14H6.6665C5.56193 14 4.6665 14.8954 4.6665 16ZM33.9998 16V38C33.9998 38.3682 33.7014 38.6667 33.3332 38.6667H6.6665C6.29831 38.6667 5.99984 38.3682 5.99984 38V16C5.99984 15.6318 6.29831 15.3333 6.6665 15.3333H33.3332C33.7014 15.3333 33.9998 15.6318 33.9998 16Z" fill="#F4CA92"/>
<path d="M13.6104 0.390672C13.0897 -0.129837 12.2457 -0.129837 11.7251 0.390672L7.05839 5.05734C6.67735 5.43849 6.56325 6.01156 6.76923 6.5096C6.97521 7.00763 7.46077 7.33269 7.99972 7.33334H9.33306V11.3333C9.33306 12.0697 9.93001 12.6667 10.6664 12.6667H14.6664C15.4028 12.6667 15.9997 12.0697 15.9997 11.3333V7.33334H17.3331C17.8723 7.33322 18.3583 7.00837 18.5646 6.51021C18.771 6.01205 18.6569 5.43866 18.2757 5.05734L13.6104 0.390672ZM17.3377 6.00001H15.3331C14.9649 6.00001 14.6664 6.29848 14.6664 6.66667V11.3333H10.6664V6.66667C10.6664 6.29848 10.3679 6.00001 9.99972 6.00001H7.99972L12.6664 1.33334L17.3364 6.00001H17.3377Z" fill="#F4CA92"/>
<path d="M29.333 0H25.333C24.5966 0 23.9997 0.596954 23.9997 1.33333V5.33333H22.6663C22.1271 5.33345 21.6411 5.6583 21.4348 6.15646C21.2284 6.65462 21.3425 7.22801 21.7237 7.60933L26.3903 12.276C26.911 12.7965 27.755 12.7965 28.2757 12.276L32.9423 7.60933C33.3235 7.22801 33.4375 6.65462 33.2312 6.15646C33.0249 5.6583 32.5388 5.33345 31.9997 5.33333H30.6663V1.33333C30.6663 0.596954 30.0694 0 29.333 0V0ZM31.9997 6.66667L27.333 11.3333L22.6663 6.66667H24.6663C25.0345 6.66667 25.333 6.36819 25.333 6V1.33333H29.333V6C29.333 6.36819 29.6315 6.66667 29.9997 6.66667H31.9997Z" fill="#F4CA92"/>
<path d="M9.33325 29.3334C9.56088 29.3311 9.78641 29.2896 9.99992 29.2107V36C10.0054 37.1023 10.8976 37.9946 11.9999 38C12.4938 37.998 12.9692 37.8119 13.3333 37.478C13.6958 37.8142 14.1722 38.0007 14.6666 38C15.7712 38 16.6666 37.1046 16.6666 36V29.2107C16.8801 29.2896 17.1056 29.3311 17.3333 29.3334C18.4378 29.3334 19.3333 28.4379 19.3333 27.3334V24.6667C19.3341 23.7824 18.9832 22.934 18.3579 22.3087C17.7326 21.6834 16.8842 21.3325 15.9999 21.3334H15.9826C16.4238 20.7598 16.6641 20.057 16.6666 19.3333C16.6666 17.4924 15.1742 16 13.3333 16C11.4923 16 9.99992 17.4924 9.99992 19.3333C10.0024 20.057 10.2427 20.7598 10.6839 21.3334H10.6666C8.82655 21.3356 7.33546 22.8266 7.33325 24.6667V27.3334C7.33325 28.4379 8.22868 29.3334 9.33325 29.3334ZM11.3333 19.3333C11.3333 18.2288 12.2287 17.3333 13.3333 17.3333C14.4378 17.3333 15.3333 18.2288 15.3333 19.3333C15.3333 20.4379 14.4378 21.3334 13.3333 21.3334C12.2287 21.3334 11.3333 20.4379 11.3333 19.3333ZM8.66659 24.6667C8.66659 23.5621 9.56202 22.6667 10.6666 22.6667H15.9999C16.5307 22.6656 17.04 22.876 17.4153 23.2513C17.7906 23.6266 18.001 24.1359 17.9999 24.6667V27.3334C17.9999 27.7015 17.7014 28 17.3333 28C16.9651 28 16.6666 27.7015 16.6666 27.3334V24.6667C16.6666 24.2985 16.3681 24 15.9999 24C15.6317 24 15.3333 24.2985 15.3333 24.6667V36C15.3333 36.3682 15.0348 36.6667 14.6666 36.6667C14.487 36.6673 14.3151 36.5934 14.1919 36.4627C14.0675 36.3411 13.9982 36.174 13.9999 36V29.3334C13.9999 28.9652 13.7014 28.6667 13.3333 28.6667C12.9651 28.6667 12.6666 28.9652 12.6666 29.3334V36C12.6666 36.3682 12.3681 36.6667 11.9999 36.6667C11.8203 36.6673 11.6484 36.5934 11.5253 36.4627C11.4009 36.3411 11.3315 36.174 11.3333 36V24.6667C11.3333 24.2985 11.0348 24 10.6666 24C10.2984 24 9.99992 24.2985 9.99992 24.6667V27.3334C9.99992 27.7015 9.70144 28 9.33325 28C8.96506 28 8.66659 27.7015 8.66659 27.3334V24.6667Z" fill="#F4CA92"/>
<path d="M22.6665 29.3334C22.8941 29.3311 23.1197 29.2896 23.3332 29.2107V36C23.3386 37.1023 24.2309 37.9946 25.3332 38C25.8271 37.998 26.3025 37.8119 26.6665 37.478C27.0291 37.8142 27.5054 38.0007 27.9998 38C29.1044 38 29.9998 37.1046 29.9998 36V29.2107C30.2133 29.2896 30.4389 29.3311 30.6665 29.3334C31.7711 29.3334 32.6665 28.4379 32.6665 27.3334V24.6667C32.6674 23.7824 32.3165 22.934 31.6912 22.3087C31.0659 21.6834 30.2175 21.3325 29.3332 21.3334H29.3158C29.757 20.7598 29.9974 20.057 29.9998 19.3333C29.9998 17.4924 28.5075 16 26.6665 16C24.8256 16 23.3332 17.4924 23.3332 19.3333C23.3356 20.057 23.576 20.7598 24.0172 21.3334H23.9998C22.1598 21.3356 20.6687 22.8266 20.6665 24.6667V27.3334C20.6665 28.4379 21.5619 29.3334 22.6665 29.3334ZM24.6665 19.3333C24.6665 18.2288 25.5619 17.3333 26.6665 17.3333C27.7711 17.3333 28.6665 18.2288 28.6665 19.3333C28.6665 20.4379 27.7711 21.3334 26.6665 21.3334C25.5619 21.3334 24.6665 20.4379 24.6665 19.3333ZM21.9998 24.6667C21.9998 23.5621 22.8953 22.6667 23.9998 22.6667H29.3332C29.8639 22.6656 30.3733 22.876 30.7486 23.2513C31.1239 23.6266 31.3342 24.1359 31.3332 24.6667V27.3334C31.3332 27.7015 31.0347 28 30.6665 28C30.2983 28 29.9998 27.7015 29.9998 27.3334V24.6667C29.9998 24.2985 29.7014 24 29.3332 24C28.965 24 28.6665 24.2985 28.6665 24.6667V36C28.6665 36.3682 28.368 36.6667 27.9998 36.6667C27.8202 36.6673 27.6484 36.5934 27.5252 36.4627C27.4008 36.3411 27.3314 36.174 27.3332 36V29.3334C27.3332 28.9652 27.0347 28.6667 26.6665 28.6667C26.2983 28.6667 25.9998 28.9652 25.9998 29.3334V36C25.9998 36.3682 25.7014 36.6667 25.3332 36.6667C25.1535 36.6673 24.9817 36.5934 24.8585 36.4627C24.7341 36.3411 24.6648 36.174 24.6665 36V24.6667C24.6665 24.2985 24.368 24 23.9998 24C23.6316 24 23.3332 24.2985 23.3332 24.6667V27.3334C23.3332 27.7015 23.0347 28 22.6665 28C22.2983 28 21.9998 27.7015 21.9998 27.3334V24.6667Z" fill="#F4CA92"/>
</svg>
