<svg width="12" height="12" viewBox="0 0 12 12" fill="none" xmlns="http://www.w3.org/2000/svg">
<g clip-path="url(#clip0)">
<path d="M9.3601 0.638672H5.67568C5.44248 0.638672 5.21853 0.731508 5.05354 0.896502L0.25772 5.69144C-0.0859068 6.03507 -0.0859068 6.59209 0.25772 6.93616L3.94214 10.6206C4.28577 10.9642 4.84279 10.9642 5.18641 10.6206L9.98223 5.82564C10.1472 5.6602 10.2401 5.43625 10.2401 5.20262V1.51864C10.2401 1.03246 9.84628 0.638672 9.3601 0.638672ZM7.82016 3.71856C7.45585 3.71856 7.16018 3.42289 7.16018 3.05858C7.16018 2.69428 7.45585 2.39861 7.82016 2.39861C8.18446 2.39861 8.48013 2.69428 8.48013 3.05858C8.48013 3.42289 8.18446 3.71856 7.82016 3.71856Z" fill="#7B7873"/>
<path d="M11.1201 1.51868L11.1196 5.61448C11.1196 5.81732 11.0391 6.01223 10.8952 6.15566L6.02197 11.0289L6.09677 11.1037C6.4404 11.4473 6.99741 11.4473 7.34104 11.1037L11.7417 6.70388C11.9072 6.53889 12 6.31494 12 6.08175V2.39864C12 1.91246 11.6062 1.51868 11.1201 1.51868Z" fill="#7B7873"/>
</g>
<defs>
<clipPath id="clip0">
<rect width="12" height="12" fill="white"/>
</clipPath>
</defs>
</svg>
