<svg width="40" height="40" viewBox="0 0 40 40" fill="none" xmlns="http://www.w3.org/2000/svg">
<path d="M35.3125 0H4.6875C2.10281 0 0 2.10281 0 4.6875V35.3125C0 37.8972 2.10281 40 4.6875 40H35.3125C37.8972 40 40 37.8972 40 35.3125V4.6875C40 2.10281 37.8972 0 35.3125 0ZM36.875 35.3125C36.875 36.1741 36.1741 36.875 35.3125 36.875H4.6875C3.82594 36.875 3.125 36.1741 3.125 35.3125V4.6875C3.125 3.82594 3.82594 3.125 4.6875 3.125H35.3125C36.1741 3.125 36.875 3.82594 36.875 4.6875V35.3125Z" fill="#F4CA92"/>
<path d="M22.3438 7.8125H11.4062V32.1875H14.5312V23.4375H22.3438C26.6516 23.4375 30.1562 19.9328 30.1562 15.625C30.1562 11.3172 26.6516 7.8125 22.3438 7.8125ZM22.3438 20.3125H14.5312V10.9375H22.3438C24.9284 10.9375 27.0312 13.0403 27.0312 15.625C27.0312 18.2097 24.9284 20.3125 22.3438 20.3125Z" fill="#F4CA92"/>
</svg>
