<svg width="12" height="12" viewBox="0 0 12 12" fill="none" xmlns="http://www.w3.org/2000/svg">
<path d="M11.9979 4H0V4.5C0 4.76522 0.105357 5.01957 0.292893 5.20711C0.48043 5.39464 0.734784 5.5 1 5.5H2.5C2.76522 5.5 3.01957 5.39464 3.20711 5.20711C3.39464 5.01957 3.5 4.76522 3.5 4.5C3.5 4.76522 3.60536 5.01957 3.79289 5.20711C3.98043 5.39464 4.23478 5.5 4.5 5.5H7.5C7.76522 5.5 8.01957 5.39464 8.20711 5.20711C8.39464 5.01957 8.5 4.76522 8.5 4.5C8.5 4.76522 8.60536 5.01957 8.79289 5.20711C8.98043 5.39464 9.23478 5.5 9.5 5.5H11C11.2652 5.5 11.5196 5.39464 11.7071 5.20711C11.8946 5.01957 12 4.76522 12 4.5V4H11.9979Z" fill="#7B7873"/>
<path d="M11.8772 3.5L10.9808 0.3625C10.951 0.258054 10.8879 0.166178 10.8011 0.100774C10.7144 0.0353691 10.6087 -6.05817e-06 10.5001 7.78189e-10L8.20996 7.78189e-10L8.90996 3.5H11.8772Z" fill="#7B7873"/>
<path d="M3.79005 7.78189e-10H1.49993C1.39129 -6.05817e-06 1.28561 0.0353691 1.19887 0.100774C1.11213 0.166178 1.04905 0.258054 1.01918 0.3625L0.122803 3.5H3.09005L3.79005 7.78189e-10Z" fill="#7B7873"/>
<path d="M7.19011 0H4.80986L4.10986 3.5H7.89011L7.19011 0Z" fill="#7B7873"/>
<path d="M9.5 6C9.13081 6.00031 8.77458 5.86392 8.5 5.61713C8.22542 5.86392 7.86919 6.00031 7.5 6H4.5C4.13081 6.00031 3.77458 5.86392 3.5 5.61713C3.22542 5.86392 2.86919 6.00031 2.5 6H1C0.829556 5.99964 0.660436 5.97005 0.5 5.9125V11.5C0.5 11.6326 0.552678 11.7598 0.646447 11.8536C0.740215 11.9473 0.867392 12 1 12H2V7.5C2 7.36739 2.05268 7.24022 2.14645 7.14645C2.24021 7.05268 2.36739 7 2.5 7H5C5.13261 7 5.25979 7.05268 5.35355 7.14645C5.44732 7.24022 5.5 7.36739 5.5 7.5V12H11C11.1326 12 11.2598 11.9473 11.3536 11.8536C11.4473 11.7598 11.5 11.6326 11.5 11.5V5.9125C11.3396 5.97005 11.1704 5.99964 11 6H9.5ZM10 9C10 9.13261 9.94732 9.25979 9.85355 9.35356C9.75979 9.44732 9.63261 9.5 9.5 9.5H7C6.86739 9.5 6.74021 9.44732 6.64645 9.35356C6.55268 9.25979 6.5 9.13261 6.5 9V7.5C6.5 7.36739 6.55268 7.24022 6.64645 7.14645C6.74021 7.05268 6.86739 7 7 7H9.5C9.63261 7 9.75979 7.05268 9.85355 7.14645C9.94732 7.24022 10 7.36739 10 7.5V9Z" fill="#7B7873"/>
</svg>
