<svg width="40" height="40" viewBox="0 0 40 40" fill="none" xmlns="http://www.w3.org/2000/svg">
<g clip-path="url(#clip0)">
<path d="M38.8549 31.3784C40.378 32.9015 40.378 35.3796 38.8549 36.9027C38.8528 36.9051 38.8503 36.9073 38.8479 36.9097L36.1752 39.5492C35.8706 39.8498 35.4739 39.9999 35.0775 39.9999C34.674 39.9999 34.2712 39.8449 33.9654 39.5354C33.3593 38.9214 33.3654 37.9321 33.9794 37.3257L35.5432 35.7812H10.4678C7.02148 35.7812 4.21784 32.9775 4.21784 29.5312V4.41802L2.659 5.9561C2.04469 6.56218 1.05531 6.55547 0.449231 5.94115C-0.156847 5.32683 -0.150133 4.33745 0.464185 3.73138L3.10395 1.12732C4.62281 -0.371093 7.09411 -0.371093 8.61297 1.12732L11.2527 3.73138C11.8671 4.33745 11.8738 5.32683 11.2677 5.94115C10.9619 6.2509 10.5588 6.40624 10.1553 6.40624C9.7589 6.40624 9.36248 6.2564 9.05792 5.9561L7.34283 4.26391V29.5312C7.34283 31.2542 8.74481 32.6562 10.4678 32.6562H35.7015L33.9794 30.9554C33.3654 30.3491 33.359 29.3597 33.9654 28.7457C34.5718 28.132 35.5612 28.1256 36.1752 28.7319L38.8479 31.3714C38.8503 31.3738 38.8528 31.376 38.8549 31.3784ZM35.3115 0H15.0772C14.212 0 13.5116 0.703124 13.5147 1.5683C13.5181 2.42889 14.2166 3.12499 15.0772 3.12499H35.3115C36.1746 3.12499 36.874 3.82446 36.874 4.68749V25C36.874 25.8605 37.5701 26.5594 38.4307 26.5624C39.2959 26.5655 39.999 25.8651 39.999 25V4.68749C39.999 2.09869 37.9003 0 35.3115 0ZM22.9678 26.7883C23.8308 26.7883 24.5303 26.0888 24.5303 25.2258V18.2714C24.5303 15.9021 22.6028 13.9746 20.2334 13.9746C19.1955 13.9746 18.2425 14.3445 17.4991 14.9594C16.7557 14.3445 15.8026 13.9746 14.7647 13.9746C14.1687 13.9746 13.6004 14.097 13.0841 14.3173C12.8061 14.0628 12.4368 13.9062 12.0303 13.9062C11.1673 13.9062 10.4678 14.6057 10.4678 15.4687V25.2343C10.4678 26.0974 11.1673 26.7968 12.0303 26.7968C12.8934 26.7968 13.5928 26.0974 13.5928 25.2343V18.2714C13.5928 17.6254 14.1186 17.0996 14.7647 17.0996C15.4107 17.0996 15.9366 17.6254 15.9366 18.2714V25.2343C15.9366 26.0974 16.636 26.7968 17.4991 26.7968C18.3621 26.7968 19.0616 26.0974 19.0616 25.2343V18.2714C19.0616 17.6254 19.5874 17.0996 20.2334 17.0996C20.8795 17.0996 21.4053 17.6254 21.4053 18.2714V25.2258C21.4053 26.0888 22.1048 26.7883 22.9678 26.7883ZM30.0576 8.43748C30.0494 8.43748 30.0415 8.4387 30.0332 8.4387C30.0253 8.4387 30.0173 8.43748 30.0091 8.43748C28.0221 8.43748 26.4053 10.0561 26.4053 12.0456C26.4053 12.9083 27.1048 13.6081 27.9678 13.6081C28.8308 13.6081 29.5303 12.9083 29.5303 12.0456C29.5303 11.7837 29.7497 11.5625 30.0091 11.5625C30.0173 11.5625 30.0253 11.5613 30.0335 11.5613C30.0415 11.5613 30.0494 11.5625 30.0576 11.5625C30.3063 11.5625 30.5181 11.7657 30.5352 12.0132C30.5044 12.1277 30.2648 12.8354 28.7677 14.4824C27.839 15.5035 26.9265 16.3351 26.9177 16.343C26.4395 16.777 26.2777 17.4606 26.5103 18.0627C26.7428 18.6651 27.322 19.0625 27.9678 19.0625H32.1865C33.0496 19.0625 33.749 18.363 33.749 17.5C33.749 16.6369 33.0496 15.9375 32.1865 15.9375H31.6491C33.0364 14.3042 33.6614 13.0887 33.6614 12.0456C33.6614 10.0561 32.0446 8.43748 30.0576 8.43748Z" fill="#F4CA92"/>
</g>
<defs>
<clipPath id="clip0">
<rect width="40" height="40" fill="white"/>
</clipPath>
</defs>
</svg>
