<svg width="24" height="22" viewBox="0 0 24 22" fill="none" xmlns="http://www.w3.org/2000/svg">
<path d="M22.7084 4.90417C22.8625 4.38333 22.7084 4 21.9667 4H19.5125C18.8875 4 18.6 4.32917 18.4459 4.69583C18.4459 4.69583 17.1959 7.74167 15.4292 9.71667C14.8584 10.2875 14.5959 10.4708 14.2834 10.4708C14.1292 10.4708 13.8917 10.2875 13.8917 9.76667V4.90417C13.8917 4.27917 13.7167 4 13.2 4H9.34169C8.95002 4 8.71669 4.29167 8.71669 4.5625C8.71669 5.15417 9.60002 5.29167 9.69169 6.95833V10.575C9.69169 11.3667 9.55002 11.5125 9.23752 11.5125C8.40419 11.5125 6.37919 8.45417 5.17919 4.95417C4.93752 4.275 4.70002 4 4.07086 4H1.61669C0.916691 4 0.775024 4.32917 0.775024 4.69583C0.775024 5.34583 1.60836 8.575 4.65419 12.8417C6.68336 15.7542 9.54169 17.3333 12.1417 17.3333C13.7042 17.3333 13.8959 16.9833 13.8959 16.3792C13.8959 13.5958 13.7542 13.3333 14.5375 13.3333C14.9 13.3333 15.525 13.5167 16.9834 14.9208C18.65 16.5875 18.925 17.3333 19.8584 17.3333H22.3125C23.0125 17.3333 23.3667 16.9833 23.1625 16.2917C22.6959 14.8375 19.5417 11.8458 19.4 11.6458C19.0375 11.1792 19.1417 10.9708 19.4 10.5542C19.4042 10.55 22.4 6.33333 22.7084 4.90417Z" fill="#C0BEBB"/>
</svg>
